<svg width="146" height="89" fill="none" xmlns="http://www.w3.org/2000/svg"><g clip-path="url(#a)"><path d="M140.366 85.373c1.652 0 3.127-.06 4.425-.148l.737-.088.044 2.61c-2.035.502-3.878.738-5.515.738-2.006 0-3.451-.531-4.365-1.578-.885-1.062-1.343-2.773-1.343-5.162 0-4.734 1.947-7.108 5.855-7.108 3.864 0 5.796 1.99 5.796 5.972l-.265 2.463h-7.817c.03.811.251 1.401.664 1.77.413.354 1.003.53 1.784.53Zm2.109-5c0-1.047-.162-1.784-.501-2.212-.324-.413-.914-.62-1.77-.62-.826 0-1.416.222-1.769.65-.34.442-.517 1.165-.531 2.182h4.571Zm-13.848-5.736c.93 0 2.109.147 3.54.427l.722.148-.117 2.802c-1.387-.133-2.434-.207-3.097-.207-1.225 0-2.036.266-2.434.782-.398.516-.59 1.504-.59 2.95 0 1.445.192 2.433.59 2.978.398.531 1.224.797 2.448.797l3.097-.207.103 2.832c-1.426.31-2.877.493-4.335.546-1.962 0-3.377-.546-4.233-1.652-.855-1.091-1.283-2.861-1.283-5.294 0-2.434.443-4.189 1.327-5.28.885-1.077 2.301-1.622 4.277-1.622h-.015Zm-15.676 13.538h-3.569V74.96h3.539v.737a6.697 6.697 0 0 1 3.319-1.061c1.769 0 2.993.53 3.672 1.563.678 1.032 1.017 2.654 1.017 4.808v7.167h-3.569V81.11c0-1.121-.132-1.962-.398-2.493-.265-.53-.796-.81-1.593-.81-.737 0-1.43.132-2.108.368l-.31.118v9.88Zm-6.563-3.599c.03.428.104.723.207.885.103.163.324.295.663.354l-.103 2.67c-.899 0-1.622-.06-2.168-.177a4.817 4.817 0 0 1-1.622-.738c-1.283.605-2.581.915-3.908.915-2.743 0-4.13-1.446-4.13-4.336 0-1.401.384-2.404 1.151-2.994.767-.59 1.917-.944 3.51-1.032l2.831-.222v-.825c0-.546-.118-.915-.368-1.121-.251-.207-.649-.295-1.18-.295l-5.014.206-.104-2.463c1.903-.5 3.702-.766 5.413-.766 1.711 0 2.949.354 3.687 1.061.752.708 1.135 1.83 1.135 3.392v5.486Zm-5.987-2.005c-.988.088-1.475.62-1.475 1.578 0 .973.428 1.46 1.298 1.46.664 0 1.401-.103 2.197-.325l.384-.103v-2.817l-2.404.207Zm-22.505 5.604h-3.554V74.96h3.525v.737a6.563 6.563 0 0 1 3.126-1.061c1.445 0 2.551.413 3.318 1.239a9.984 9.984 0 0 1 4.469-1.24c1.755 0 2.964.517 3.657 1.52.678 1.017 1.018 2.64 1.018 4.866v7.153H89.9V81.11c0-1.121-.133-1.962-.384-2.493-.236-.53-.737-.81-1.475-.81-.575 0-1.268.132-2.064.368l-.413.147c.074 1.313.103 2.316.103 3.009v6.843h-3.554V81.39c0-1.327-.118-2.242-.34-2.773-.235-.53-.737-.81-1.518-.81a6.2 6.2 0 0 0-2.05.368l-.31.118v9.88Zm-13.037 0V74.96h3.525v1.401c1.475-.885 2.89-1.46 4.233-1.725v3.569c-1.431.294-2.655.604-3.687.929l-.531.177v8.848l-3.54.015ZM51.837 76.45c.944-1.21 2.507-1.814 4.72-1.814 2.182 0 3.745.604 4.69 1.814.928 1.209 1.4 2.905 1.4 5.088 0 4.63-2.035 6.946-6.105 6.946s-6.106-2.316-6.106-6.947c0-2.182.472-3.878 1.401-5.087Zm2.758 8.067c.354.634 1.018.943 1.947.943.944 0 1.593-.31 1.961-.944.354-.634.531-1.622.531-2.978 0-1.357-.177-2.36-.53-2.95-.37-.634-1.033-.93-1.962-.93-.93 0-1.593.296-1.947.915a6.046 6.046 0 0 0-.545 2.95c0 1.356.177 2.36.545 2.993Zm-8.258-6.548v10.205h-3.54V74.37c0-1.902.28-3.215.84-3.937.576-.723 1.579-1.077 3.024-1.077.649 0 1.475.089 2.478.266l.56.073-.059 2.876-1.961-.044c-.531 0-.885.147-1.062.427-.177.28-.266.767-.266 1.446v.56h3.215v3.009h-3.23Zm-5.929-1.608H35.97v6.533c0 1.711.118 2.832.369 3.363.25.53.826.796 1.755.796l2.448-.192.103 1.357c-1.18.162-2.065.266-2.684.266-1.342 0-2.286-.34-2.802-1.003-.516-.664-.782-1.917-.782-3.79V70.788h1.593v4.158h4.424l.015 1.416Zm-12.8 0V88.16h-1.593V73.604c0-1.858.25-3.126.766-3.79.517-.663 1.416-.988 2.729-.988l2.58.133V70.3l-2.344-.044c-.826 0-1.387.22-1.696.678-.295.457-.443 1.357-.443 2.699v1.327h4.012v1.401h-4.012Zm-15.5 5.177c0-2.478.427-4.248 1.268-5.28.84-1.032 2.271-1.563 4.291-1.563 2.036 0 3.466.516 4.307 1.563.84 1.032 1.253 2.802 1.253 5.28 0 2.477-.383 4.261-1.15 5.309-.767 1.061-2.227 1.592-4.395 1.592-2.153 0-3.628-.53-4.41-1.592-.78-1.047-1.164-2.832-1.164-5.31Zm1.651-.045c0 2.094.236 3.54.738 4.336.472.811 1.534 1.21 3.17 1.21 1.637 0 2.714-.414 3.2-1.225.502-.81.738-2.241.738-4.32 0-2.065-.265-3.481-.826-4.248-.56-.767-1.593-1.15-3.097-1.15s-2.536.383-3.097 1.135c-.545.752-.826 2.183-.826 4.277v-.015Zm-8.996-5.353c-2.094 0-3.14.752-3.14 2.256 0 .679.22 1.18.692 1.445.443.296 1.49.56 3.112.841 1.622.266 2.758.649 3.421 1.121.664.472 1.003 1.386 1.003 2.728 0 1.357-.442 2.345-1.297 2.965-.885.634-2.139.943-3.835.943-.958 0-2.212-.132-3.76-.368l-.767-.118.103-1.401c1.976.295 3.495.457 4.572.457 1.061 0 1.887-.192 2.477-.56.59-.37.885-.989.885-1.874 0-.884-.236-1.474-.737-1.77a10.265 10.265 0 0 0-3.127-.796 8.479 8.479 0 0 1-3.392-1.047C.324 80.506 0 79.636 0 78.368c0-1.268.442-2.198 1.357-2.773a6.047 6.047 0 0 1 3.347-.885c1.062 0 2.39.118 3.982.354l.708.104-.044 1.4c-1.902-.28-3.422-.427-4.601-.427" fill="#fff"/><path d="M90.358 8.215H75.33v4.925h10.087c2.729 0 4.94-2.212 4.94-4.925ZM96.153 0H80.27a4.94 4.94 0 0 0-4.94 4.926h15.883c2.728 0 4.94-2.212 4.94-4.926Z" fill="#EB660B"/><path d="m83.234 23.655-17.21-2.197a2.596 2.596 0 0 1-2.241-1.962 2.518 2.518 0 0 1 2.462-3.067h9.085v-3.303h-3.716a2.463 2.463 0 0 1 0-4.926h3.716V4.91h-26V7.02c0 3.45 2.566 6.341 6.002 6.784H49.33v2.123c0 3.437 2.566 6.342 6.002 6.784H49.33v2.124c0 3.436 2.566 6.341 5.988 6.784l26.457 3.436a2.528 2.528 0 0 1 2.182 2.92c-.206 1.253-1.386 2.109-2.654 2.109h-20.44A11.502 11.502 0 0 0 49.33 51.587h31.678c7.373 0 13.818-5.471 14.452-12.8A14.054 14.054 0 0 0 83.235 23.64" fill="#fff"/></g><defs><clipPath id="a"><path fill="#fff" d="M0 0h146v88.485H0z"/></clipPath></defs></svg>