<svg viewBox="0 0 15 15" xmlns="http://www.w3.org/2000/svg">
    <path fill-rule="evenodd" clip-rule="evenodd" d="M6.60568 0C2.96341 0 0 2.96341 0 6.60568C0 10.2482 2.96341 13.2114 6.60568 13.2114C8.20786 13.2114 9.67862 12.6381 10.8236 11.6858L13.9591 14.8213C14.0782 14.9404 14.2341 15 14.3902 15C14.5461 15 14.7022 14.9404 14.8213 14.8213C15.0596 14.5833 15.0596 14.1971 14.8213 13.9591L11.6858 10.8236C12.638 9.67863 13.2114 8.20787 13.2114 6.60568C13.2114 2.96341 10.2482 0 6.60568 0ZM6.60568 11.9919C3.63577 11.9919 1.21951 9.57563 1.21951 6.60571C1.21951 3.6358 3.63577 1.21951 6.60568 1.21951C9.57559 1.21951 11.9918 3.63577 11.9918 6.60568C11.9918 9.5756 9.57559 11.9919 6.60568 11.9919Z"/>
</svg>
